<svg width="499" height="540" viewBox="0 0 499 540" fill="none" xmlns="http://www.w3.org/2000/svg">
<rect x="2.29749" y="43.6958" width="496" height="496" rx="237" fill="#72E1FF"/>
<path d="M123.298 79.1958C10.2974 115.196 -88.7025 388.196 130.298 514.196C72.2978 444.362 -15.9025 258.796 123.298 79.1958Z" fill="#37C9FD"/>
<path d="M199.192 419.545C197.192 423.145 199.025 428.711 200.192 431.045C191.792 434.245 171.025 414.045 161.692 403.545C149.692 399.545 143.359 361.878 141.692 343.545C136.092 343.545 133.692 340.545 133.192 339.045C129.192 329.545 117.792 303.445 104.192 275.045C90.5919 246.645 115.859 215.878 130.192 204.045L155.192 202.045C168.392 192.845 183.025 212.878 188.692 224.045C190.292 228.845 213.359 245.045 224.692 252.545C273.192 268.045 238.692 296.545 230.192 301.045C223.392 304.645 219.025 330.878 217.692 343.545C229.192 358.545 205.692 376.045 199.192 386.045C192.692 396.045 194.692 407.045 193.692 411.545C192.892 415.145 197.025 418.378 199.192 419.545Z" fill="#1FC45B"/>
<path d="M336.35 415.903C338.608 420.798 336.538 428.366 335.222 431.538C344.702 435.889 368.141 408.425 378.675 394.15C392.219 388.712 399.367 337.5 401.249 312.575C407.569 312.575 410.278 308.496 410.842 306.457C415.357 293.541 428.224 258.056 443.573 219.443C458.923 180.831 430.406 139.001 414.228 122.913L386.012 120.194C371.113 107.685 354.597 134.922 348.201 150.104C346.395 156.63 320.361 178.656 307.569 188.853C257.969 174 281.375 244.882 290.969 251C298.644 255.895 360.964 257.279 362.469 274.5C349.489 294.894 327.885 341.904 335.222 355.5C342.558 369.096 341.429 398.908 342.558 405.026C343.461 409.921 338.796 414.317 336.35 415.903Z" fill="#1FC45B"/>
<path d="M95.7975 190.696C67.3975 192.696 27.9642 214.529 11.7975 225.196C34.5975 113.196 110.964 79.5291 146.297 76.6958L172.797 90.6958C165.464 99.3625 146.597 117.796 129.797 122.196C108.797 127.696 95.7975 137.196 109.297 157.696C122.797 178.196 131.297 188.196 95.7975 190.696Z" fill="#1FC45B"/>
<path d="M237.183 61.2329C239.705 61.0228 242.251 60.6282 244.801 60.3854C246.932 61.2139 263.798 58.4812 266.221 60.3854C267.323 60.8752 268.636 61.2159 269.834 61.5154C270.788 61.7539 271.466 62.6731 272.377 62.8387C273.766 63.0912 274.802 64.5643 276.213 64.727C276.866 64.8023 277.79 65.5616 278.413 65.857C279.666 66.4503 280.993 67.2656 282.145 68.0575C283.128 68.7334 284.752 69.1055 285.58 69.8714C287.126 71.3037 289.143 72.6096 289.921 74.7482C290.817 77.2106 290.851 79.8485 291.586 82.331C291.868 83.2806 291.725 83.5686 291.259 84.3828C290.728 85.3127 290.777 86.3414 290.085 87.3416C289.292 88.486 288.202 91.0895 286.977 91.7574C285.173 92.7416 283.677 94.189 281.61 94.8352C279.311 95.5534 277.049 96.3869 274.726 97.0505C272.519 97.6811 270.191 97.2438 267.961 97.0951C265.384 96.9233 263.357 96.2234 260.898 95.6381C258.62 95.0956 256.982 93.8985 254.535 93.8985H250.193C249.376 93.8985 248.575 94.3341 247.77 94.4189C246.031 94.6019 244.628 95.5431 242.967 95.98C240.696 96.5777 237.924 98.5019 235.474 97.8534C233.212 97.2549 231.072 96.4325 229.006 95.6381C228.232 95.3403 227.656 95.2371 227.133 94.5527C226.815 94.138 226.231 93.6909 225.69 93.6308C224.843 93.5367 224.601 92.8985 223.876 92.6198C222.167 91.9625 220.561 89.9284 219.55 88.4121C218.308 86.5493 217.066 84.8753 214.599 84.5464C214.006 84.4673 212.876 84.803 212.517 84.2639C211.685 83.0152 210.295 81.3732 209.097 80.4576C208.467 79.9755 208.081 78.7536 208.428 77.9895C208.822 77.123 209.355 76.3534 209.752 75.447C210.239 74.3325 210.763 73.7923 211.506 72.8153C211.843 72.3715 213.045 71.418 213.588 71.2095C216.224 70.1957 217.208 66.6959 220.204 66.0651C221.317 65.8307 222.01 64.8954 223.073 64.6675C224.602 64.34 225.964 63.6642 227.504 63.3294C230.78 62.6173 233.815 61.5136 237.183 61.2329Z" fill="#5B5235"/>
<path d="M215.2 371.214C215.2 355.957 230.559 345.645 242.853 340.267C250.16 337.07 256.985 334.056 264.685 331.917C271.984 329.889 281.241 331.228 288.738 331.228C303.346 331.228 330.216 331.76 338.222 347.774C340.476 352.281 344.429 356.431 347.874 359.877C350.649 362.651 352.682 369.033 354.462 372.593" stroke="#5B5235" stroke-width="15" stroke-linecap="round"/>
<path d="M336.537 189.208C341.385 190.286 349.639 199.05 353.926 202.384C363.773 210.043 373.281 218.007 381.962 227.049C387.664 232.99 394.841 236.649 400.729 242.37C404.286 245.825 410.65 246.088 412.373 251.256" stroke="#5B5235" stroke-width="15" stroke-linecap="round"/>
<path d="M384.796 191.966C378.673 195.189 373.411 199.783 368.557 204.682C362.455 210.838 358.092 219.966 351.091 225.058C345.739 228.95 339.295 231.225 339.295 238.846" stroke="#5B5235" stroke-width="15" stroke-linecap="round"/>
<path d="M126.955 218.164C130.591 221.396 135.8 221.782 139.364 225.058C146.777 231.87 155.171 235.743 163.877 240.531C176.661 247.563 189.563 259.365 204.169 262.286" stroke="#5B5235" stroke-width="15" stroke-linecap="round"/>
<path d="M184.866 212.648C183.91 217.426 176.109 221.943 172.763 224.752C166.402 230.09 159.796 234.664 152.846 239.153C148.27 242.108 139.733 248.772 137.986 254.013" stroke="#5B5235" stroke-width="15" stroke-linecap="round"/>
<path d="M252.602 68.2169C252.602 61.4703 254.936 54.9507 254.936 48.2224C254.936 42.4822 255.552 36.9551 256.311 31.2621C256.986 26.1992 257.409 21.1456 258.567 16.143C259.198 13.4161 258.542 10.2937 260.071 8" stroke="#38E777" stroke-width="15" stroke-linecap="round"/>
<path d="M186.851 99.9718C188.326 98.844 193.379 95.5821 195.297 95.369C195.676 95.2216 195.181 95.6316 195.846 95.8215C196.486 96.0045 197.378 98.0411 197.657 98.7644C198.307 100.456 199.693 102.036 200.041 103.866C200.335 105.41 200.941 107.047 201.46 108.544C202.049 110.247 202.083 111.253 201.958 113.072C201.861 114.479 202.156 116.383 201.399 117.63C200.234 119.55 199.265 120.94 197.717 122.595C195.837 124.605 193.541 125.437 191.167 126.715C188.466 128.169 185.803 129.544 182.927 130.609C180.324 131.573 178.078 133.619 175.984 135.378C174.603 136.538 173.855 137.819 172.875 139.302C172.654 139.637 172.402 139.914 172.238 140.231C172.14 141.404 172.06 141.928 172.06 140.932C172.06 140.663 172.13 140.439 172.238 140.231C172.396 138.335 172.604 134.74 172.604 133.129C172.604 125.548 173.625 117.826 176.935 110.929C178.307 108.072 180.165 105.873 182.534 103.775C183.969 102.504 185.323 101.139 186.851 99.9718Z" fill="#DBB282"/>
</svg>
